<svg width="627" height="1506" viewBox="0 0 627 1506" fill="none" xmlns="http://www.w3.org/2000/svg">
<g clip-path="url(#clip0_2737_19)">
<mask id="mask0_2737_19" style="mask-type:alpha" maskUnits="userSpaceOnUse" x="0" y="5" width="657" height="1452">
<path d="M631.409 12.7633L502.5 39.5L348 115.5L282 170L238.5 226.5L195.295 310.294L148.051 455.521L135.5 520L137 563L143.5 586.5L155.094 612.5L160.5 646.5L155.5 681.5L133.037 725.606L98.5524 780.833L6.5 889L0.5 914.5L13 939L48.5 966L103 991L105 1006L87 1053L73.5012 1073.5L74 1086.5L88.5 1105L112 1125.5L92 1144.5L83.5 1166.5L82 1191.5L94 1208L127.5 1223L152 1252L158.5 1294L144 1353L143.5 1396L156 1428.5L193.5 1450L280 1451L436 1431L540.5 1406L606.5 1404.5L657 1457V5L631.409 12.7633Z" fill="white"/>
</mask>
<g mask="url(#mask0_2737_19)">
</g>
<mask id="mask1_2737_19" style="mask-type:alpha" maskUnits="userSpaceOnUse" x="0" y="5" width="657" height="1452">
<path d="M631.409 12.7633L502.5 39.5L348 115.5L282 170L238.5 226.5L195.295 310.294L148.051 455.521L135.5 520L137 563L143.5 586.5L155.094 612.5L160.5 646.5L155.5 681.5L133.037 725.606L98.5524 780.833L6.5 889L0.5 914.5L13 939L48.5 966L103 991L105 1006L87 1053L73.5012 1073.5L74 1086.5L88.5 1105L112 1125.5L92 1144.5L83.5 1166.5L82 1191.5L94 1208L127.5 1223L152 1252L158.5 1294L144 1353L143.5 1396L156 1428.5L193.5 1450L280 1451L436 1431L540.5 1406L606.5 1404.5L657 1457V5L631.409 12.7633Z" fill="white"/>
</mask>
<g mask="url(#mask1_2737_19)">
<path d="M143 586.5L136.5 563.5L159.5 529.5L191.5 520L230.5 518L281 529.5L319.5 556.5L340 594L438.5 529.5L507.5 693.5L630 581V1111L583.5 1099.5L497.5 1111.5L351.5 1055.5L255 1050.5L203 1065.5L145.5 1058.5L98 1049.5L86.5 1052.5L105 1005.5L103 991.5L75 977.5L48 966L13 939.5L0.5 914L7 888.5L21.5 871.5L52 836L98.5 780.5L134 723.5L155.5 681L160.5 647L154.5 611.5L143 586.5Z" fill="url(#paint0_linear_2737_19)" fill-opacity="0.51"/>
<path d="M74 1074L87 1052.5L99 1049L145 1058.5L204 1065.5L255.5 1050.5L352 1055L497.5 1112L584 1099.5L629.5 1111L633.5 1431L606.5 1404.5L540.5 1406L488 1418.5L435.5 1431L278.5 1450.5L194 1450L156 1428.5L143.5 1396L144.5 1351.5L158.5 1293.5L152 1251.5L127 1222L94 1208L82.5 1191.5L83.5 1166L92 1144L111.5 1125.5L88.5 1105L74.5 1086.5L74 1074Z" fill="url(#paint1_linear_2737_19)" fill-opacity="0.38"/>
<path opacity="0.82" d="M503 40L629 13.5L629.5 582L507.5 693.5L438.5 529.5L339.5 594.5L319.5 556.5L281 529.5L230 518L190 520.5L159.5 528.5L136.5 563L136 518.5L147.5 456.5L195 311.5L238 227L282 170L348 116L503 40Z" fill="url(#paint2_linear_2737_19)" fill-opacity="0.4"/>
<path d="M143 586.5L136.5 563.5L159.5 529.5L191.5 520L230.5 518L281 529.5L319.5 556.5L340 594L438.5 529.5L507.5 693.5L630 581V1111L583.5 1099.5L497.5 1111.5L351.5 1055.5L255 1050.5L203 1065.5L145.5 1058.5L98 1049.5L86.5 1052.5L105 1005.5L103 991.5L75 977.5L48 966L13 939.5L0.5 914L7 888.5L21.5 871.5L52 836L98.5 780.5L134 723.5L155.5 681L160.5 647L154.5 611.5L143 586.5Z" fill="url(#paint3_linear_2737_19)" fill-opacity="0.51"/>
<path d="M74 1074L87 1052.5L99 1049L145 1058.5L204 1065.5L255.5 1050.5L352 1055L497.5 1112L584 1099.5L629.5 1111L633.5 1431L606.5 1404.5L540.5 1406L488 1418.5L435.5 1431L278.5 1450.5L194 1450L156 1428.5L143.5 1396L144.5 1351.5L158.5 1293.5L152 1251.5L127 1222L94 1208L82.5 1191.5L83.5 1166L92 1144L111.5 1125.5L88.5 1105L74.5 1086.5L74 1074Z" fill="url(#paint4_linear_2737_19)" fill-opacity="0.38"/>
<path opacity="0.82" d="M503 40L629 13.5L629.5 582L507.5 693.5L438.5 529.5L339.5 594.5L319.5 556.5L281 529.5L230 518L190 520.5L159.5 528.5L136.5 563L136 518.5L147.5 456.5L195 311.5L238 227L282 170L348 116L503 40Z" fill="url(#paint5_linear_2737_19)" fill-opacity="0.4"/>
</g>
<g filter="url(#filter0_d_2737_19)">
<path d="M890.527 1122.8L889.994 1123.4L889.667 1123.12L889.126 1122.66C888.417 1122.57 887.716 1122.48 887.032 1122.35L888.664 1123.74L738.496 1136.51L738.257 1136.5C738.234 1136.5 738.225 1136.48 738.202 1136.48C737.963 1136.48 737.716 1136.47 737.477 1136.43C737.262 1136.39 737.055 1136.34 736.848 1136.3C736.713 1136.28 736.585 1136.23 736.458 1136.2C736.442 1136.2 736.426 1136.2 736.418 1136.2L584 1099.5C583.634 1099.56 583.336 1099.23 582.962 1099.28L498.798 1111.02V1111C498.798 1111 498.75 1111.01 498.718 1111.01C498.296 1111.01 497.858 1111 497.468 1110.84C497.436 1110.82 497.405 1110.81 497.381 1110.78L353.017 1055.2C353.017 1055.2 352.985 1055.18 352.929 1055.17L352.914 1055.15C352.746 1055.1 352.571 1055.05 352.404 1054.99C352.38 1054.99 352.356 1054.97 352.34 1054.96C352.253 1054.95 352.165 1054.93 352.085 1054.89C351.998 1054.88 352.213 1054.91 351.64 1054.83H351.297L256.273 1049.98C255.334 1050.06 256.273 1049.98 255.087 1050.11C254.567 1050.21 254.044 1050.33 253.518 1050.46L204.036 1065.07C203.622 1065.15 203.271 1065.14 202.825 1065.08L147.132 1058.42C146.137 1058.28 145.795 1058.24 144.831 1058.07L99.7915 1049.14C99.7915 1049.14 99.7199 1049.13 99.6641 1049.12C99.5527 1049.1 99.4093 1049.06 99.3855 1049.06C98.9237 1049.03 98.5097 1048.99 98.0479 1049C98.0319 1049 97.9762 1049.01 97.9603 1049L87.9602 1051.5C87.5064 1051.63 87.1243 1051.71 86.6704 1051.84L86.5192 1052.1L73.3185 1072.91L73.0876 1073.47L73 1074.03L73.5255 1086.36L87.8408 1105.19L111.161 1125.46L91.7262 1143.67L91.3599 1144.19L91.1131 1144.58L82.9363 1165.84L81.75 1191.71L93.3106 1208.51L93.7007 1208.89L94.2103 1209.24L127.005 1223.09L127.077 1223.17L151.209 1252.11L151.225 1252.23L157.674 1294.1L143.86 1353.05L142.618 1395.56L142.658 1396.07L142.809 1396.62L155.492 1428.15L155.739 1428.68L156.281 1429.05L193.685 1450.56L279.115 1451.29L280.063 1451.23L435.517 1431.82L436.441 1431.65L540.414 1406.84H540.462L606.25 1404.86L657.708 1456.58L693.464 1547.57L737.238 1696L737.899 1695.8L738.56 1696L779.882 1560.11L818.313 1636.68L819.006 1636.33L819.707 1636.67L863.584 1546.57L861.642 1545.62L863.799 1545.45L850.471 1377.79L855.869 1219.68L855.893 1219.62L890.559 1124.47L890.615 1124.4L892 1122.83C891.514 1122.83 891.029 1122.81 890.551 1122.78L890.527 1122.8ZM740.2 1137.49L888.242 1124.91L800.805 1193.97L800.527 1193.71L739.205 1137.57L740.2 1137.49V1137.49ZM736.299 1442.88L707.477 1265.16L809.651 1258.13L809.396 1258.78L736.299 1442.88ZM736.45 1447.53L778.879 1557.94L694.786 1546.95L736.06 1446.5L736.458 1447.53H736.45ZM696.259 1388.9L735.089 1444.55L659.181 1455.48L696.259 1388.9ZM695.686 1387.36L607.739 1403.5L608.368 1402.61L706.092 1266.62L695.686 1387.36ZM696.784 1387.68L696.8 1387.52L706.999 1269.2L735.128 1442.63L696.784 1387.68ZM708.695 1263.94L800.359 1195.7L809.858 1256.99L708.695 1263.94ZM737.676 1442.47L810.455 1259.16L849.221 1377.53L848.919 1377.7L737.206 1443.65L737.676 1442.47ZM801.49 1195.65L854.261 1219.74L810.909 1256.44L801.49 1195.65ZM738.202 1138.19L738.751 1138.69L799.898 1194.66L799.476 1194.98L707.748 1263.26L738.21 1138.19H738.202ZM737.071 1138.09L706.474 1263.72L705.948 1263.36L605.43 1194.3L606.163 1193.99L737.071 1138.09ZM736.108 1137.28L604.682 1193.4L604.571 1192.88L584.387 1100.5L736.108 1137.28ZM583.209 1100.37L583.297 1100.77L603.4 1192.8L499.522 1112.05L583.209 1100.38V1100.37ZM103.008 1161.76L136.018 1158.02L105.46 1181.46L103.008 1161.77V1161.76ZM104.33 1181.42L92.4507 1174.26L101.989 1162.63L104.33 1181.41V1181.42ZM111.272 1138.05L112.331 1127.74L120.07 1146.67L111.272 1138.05ZM119.975 1148.15L94.2182 1144.19L110.532 1138.9L119.975 1148.15ZM324.155 1182.58L280.381 1224.8L280.158 1224.14L250.182 1133.69L324.155 1182.58ZM250.533 1132.58L278.2 1126.08L278.375 1126.29L322.276 1180L250.533 1132.58V1132.58ZM324.92 1183.4L325.198 1183.89L388.996 1295.06L281.026 1225.72L324.92 1183.39V1183.4ZM226.838 1303.19L277.197 1339.27L212.141 1374.51L226.838 1303.19ZM211.05 1374.23L185.405 1339.34L225.572 1303.76L211.05 1374.23ZM215.174 1223.19L276.607 1337.47L226.981 1301.91L226.958 1301.72L215.174 1223.19ZM215.126 1220.73L279.553 1226.33V1226.74L277.722 1337.17L215.126 1220.73ZM279.322 1225.18L214.943 1219.59L215.158 1219.04L249.083 1133.96L279.322 1225.18ZM214.059 1218.77L171.376 1141.84L248.271 1132.99L214.059 1218.78V1218.77ZM211.289 1216.09L165.89 1166L170.715 1142.95L171.289 1143.98L211.297 1216.08L211.289 1216.09ZM212.905 1219.54L177.674 1220.43L166.281 1168.1L212.905 1219.54ZM164.935 1165.08L156.957 1157.75L169.489 1143.36L164.943 1165.08H164.935ZM127.371 1131.1L146.368 1136.18L147.053 1136.36L122.499 1147.92L127.371 1131.1ZM121.527 1147.25L112.984 1126.35L126.296 1130.78L121.527 1147.25ZM148.629 1136.73L167.57 1141.25L125.365 1147.81L148.645 1136.73H148.637H148.629ZM166.894 1142.49L137.968 1156.6L123.43 1149.25L166.894 1142.49ZM168.247 1143.07L155.93 1157.21L140.142 1156.73L168.247 1143.07ZM138.152 1157.79L153.876 1158.28L109.712 1179.6L138.152 1157.8V1157.79ZM109.935 1180.29L114.951 1178.32L156.082 1158.45L164.163 1165.89L109.935 1180.29ZM162.73 1167.44L139.378 1185.52L139.202 1185.5L108.08 1182.24L162.73 1167.44ZM147.347 1135.27L147.26 1135.07L138.462 1115.15L168.311 1140.27L147.347 1135.27ZM145.954 1134.9L127.849 1130.06L136.902 1114.39L145.954 1134.9ZM127.172 1128.99L117.156 1093.86L136.265 1113.25L127.164 1128.99H127.172ZM126.161 1129.54L112.618 1125.04L116.241 1094.75L126.161 1129.55V1129.54ZM121.655 1149.6L136.042 1156.87L104.728 1160.42L121.655 1149.6ZM137.769 1186.47L119.6 1196.97L106.487 1183.19L137.769 1186.47ZM139.465 1186.79L174.601 1219.33L120.779 1197.59L139.465 1186.79ZM140.413 1186.14L164.935 1167.15L176.305 1219.37L140.421 1186.14H140.413ZM177.666 1221.55L213.001 1220.66L159.497 1291.53L177.666 1221.56V1221.55ZM159.736 1293.07L213.789 1221.48L225.803 1301.58L159.274 1293.68L159.736 1293.07V1293.07ZM225.158 1302.63L184.792 1338.38L159.29 1294.81L225.158 1302.63ZM209.864 1374.49L146.074 1353.57L184.449 1339.93L209.864 1374.5V1374.49ZM209.991 1376.57L188.924 1407.29L188.629 1407.21L145.253 1395.96L209.999 1376.57H209.991ZM211.551 1376.28L320.987 1422.73L190.142 1407.48L211.544 1376.28H211.551ZM212.642 1375.52L278.033 1340.1L323.534 1422.6L212.642 1375.52ZM278.845 1337.87L280.676 1226.83L389.395 1296.65L278.837 1338.52V1337.87H278.845ZM325.867 1182.76L496.823 1112.8L390.645 1295.65L325.867 1182.77V1182.76ZM352.46 1056.19L352.937 1056.38L496.6 1111.68L325.819 1181.58L352.46 1056.19ZM324.745 1181.24L279.179 1125.49L279.474 1125.22L351.122 1057.09L324.745 1181.24ZM350.716 1055.92L278.686 1124.41L256.138 1051.09L350.716 1055.92ZM255.7 1053.49L277.706 1125.03L249.76 1131.6L255.708 1053.48L255.7 1053.49ZM254.744 1051.26L248.701 1130.69L204.601 1066.08L254.744 1051.26ZM203.805 1066.91L248.152 1131.88L171.384 1140.71L203.813 1066.91H203.805ZM202.881 1066.23L170.572 1139.76L170.23 1138.62L146.44 1059.47L202.881 1066.22V1066.23ZM145.819 1061.32L169.394 1139.74L137.562 1112.95L137.602 1112.71L145.827 1061.32H145.819ZM136.575 1111.99L116.766 1091.9L144.8 1060.6L136.583 1111.99H136.575ZM144.585 1059.17L116.185 1090.88L99.3855 1050.21L144.585 1059.17ZM98.9794 1052.18L114.712 1090.26L98.5335 1078.22L98.9794 1052.18V1052.18ZM87.395 1052.8L96.5749 1050.51L76.5669 1069.89L87.395 1052.8ZM97.8807 1050.81L97.4109 1077.81L74.7118 1073.25L97.8807 1050.81ZM97.2676 1078.93L92.7453 1096.08L74.9905 1074.45L97.2676 1078.93ZM74.1385 1075.18L90.508 1095.13L74.5924 1085.55L74.1385 1075.18ZM75.922 1087.67L92.2517 1097.48L88.4778 1104.18L75.922 1087.67ZM89.266 1105.08L90.2214 1103.38L93.0558 1098.35L109.186 1122.27L89.2739 1105.07L89.266 1105.08ZM93.6131 1097.18L97.9921 1080.57L110.397 1122.08L93.6052 1097.18H93.6131ZM98.9874 1079.96L115.413 1092.18L111.766 1122.69L98.9953 1079.96H98.9874ZM111.288 1126.88L110.166 1137.84L94.0112 1143.07L111.288 1126.88ZM120.062 1149.29L102.554 1160.49L92.9205 1145.12L120.062 1149.29ZM92.3392 1146.31L101.686 1161.22L92.172 1172.82L92.3392 1146.3V1146.31ZM91.2087 1147.45L91.0415 1173.1L83.9714 1166.24L91.2007 1147.45H91.2087ZM83.8042 1167.71L90.8982 1174.51L82.8647 1189.15L83.8042 1167.71ZM83.0398 1191.14H83.0558L91.1689 1176.35L93.3106 1206.56L83.0398 1191.14ZM92.2357 1175.44L104.322 1182.72L94.4173 1206.17L92.2357 1175.44ZM105.206 1183.5L118.526 1197.49L95.0781 1207.49L105.206 1183.5ZM95.4603 1208.55L119.147 1198.45L126.448 1221.64L95.4682 1208.56L95.4603 1208.55ZM120.389 1198.66L174.545 1220.54L127.753 1222.06L120.389 1198.66ZM128.518 1223.15L176.002 1221.63L151.734 1251L128.518 1223.15ZM152.332 1252.04L152.459 1251.89L176.05 1223.34L158.39 1291.36L152.339 1252.05L152.332 1252.04ZM158.47 1295.64L183.836 1338.97L145.086 1352.75L158.47 1295.64ZM144.847 1354.39L209.481 1375.57L143.749 1395.26L144.847 1354.39ZM144.107 1396.85L187.762 1408.16L156.456 1427.54L144.107 1396.85ZM157.276 1428.35L188.717 1408.89L193.407 1449.19L157.284 1428.35H157.276ZM194.473 1448.69L189.808 1408.59L321.249 1423.91L194.577 1449.55L194.473 1448.69ZM279.402 1450.19L199.521 1449.7L321.703 1424.96L279.402 1450.18V1450.19ZM425.485 1431.96L282.149 1449.87L324.96 1424.33H325.095L433.121 1431.25L425.485 1431.96ZM325.167 1423.22L325.055 1423.01L279.744 1340.87L433.535 1430.51L325.167 1423.22ZM279.569 1339.47L390.302 1297.52L390.445 1297.95L434.88 1429.99L279.577 1339.46L279.569 1339.47ZM436.25 1430.56L391.735 1298.29L539.029 1406.03L436.25 1430.55V1430.56ZM391.385 1296.64L391.584 1296.3L497.811 1113.36L497.994 1114.61L539.602 1405.07L391.393 1296.65L391.385 1296.64ZM540.255 1401.75L498.893 1112.98L603.639 1194.4L603.551 1194.69L540.542 1403.71L540.263 1401.76L540.255 1401.75ZM541.855 1403.22L604.594 1195.1L705.909 1264.71L705.471 1265.08L541.425 1404.65L541.855 1403.23V1403.22ZM606.179 1403.76L541.927 1405.69L703.695 1268.07L606.187 1403.75L606.179 1403.76ZM657.612 1454.87L607.62 1404.68L695.144 1388.62L658.018 1455.28L657.612 1454.87ZM658.934 1456.66L735.192 1445.69L734.898 1446.4L694.006 1545.92L658.934 1456.66ZM778.871 1559.6L737.899 1694.32L694.778 1548.09L779.022 1559.1L778.871 1559.6ZM779.754 1557.07L736.776 1445.23L737.095 1445.04L848.791 1379.1L779.754 1557.07ZM862.302 1546.67L819.006 1635.58L818.608 1634.79L780.606 1559.08L862.302 1546.68V1546.67ZM862.677 1545.48L780.63 1557.93L780.901 1557.22L849.54 1380.28L849.691 1382.19L862.677 1545.48ZM854.675 1221.84L849.452 1374.6L811.172 1257.7L854.707 1220.85L854.675 1221.84ZM854.993 1218.84L801.856 1194.58L888.863 1125.86L854.993 1218.83V1218.84Z" fill="#FFAEBC"/>
</g>
<g filter="url(#filter1_d_2737_19)">
<path d="M1016.76 53.7617L1016.51 54.2634L1015.69 53.9608L1015.84 53.4193L846.402 8.47318L846.115 9.55622L846.418 9.63585L1014.33 54.1838L1013.11 54.6775L757.444 157.343L845.297 10.9021L845.44 8.31391L691.488 0L691.337 2.77927L691.456 3.07392L755.29 157.972L754.67 158.004L628.672 164.797L628.911 164.168L690.94 2.30942L690.479 0.0796352L502.683 39.3716L503.526 41.0838L626.789 165.124L456.829 213.335L457.028 212.586L503.526 41.0838L502.683 39.3716L348 115.5L348.628 116.904L349.908 118.059L454.778 213.773L311.573 236.166L311.779 235.497L348.628 116.904L348 115.5L282.148 169.79L238.321 226.307L237.915 226.912L237.812 227.12L194.97 310.346L147.5 455.5L135 519.388L136 562.5C136.358 562.094 137.134 560.906 137.5 560.5L136.137 520.272L159.084 529.518L160.84 528.435L184.645 462.951L189.5 520.5L190.5 520L185.703 462.218L229.538 517.804L230.96 517.788L187.912 463.198L317.089 555.79L319.505 557.55L319.601 557.725L339.758 594.978L437.546 531.135L438.5 530.5L439.342 532.552L507.055 695L678.453 537.227C680.829 534.519 683.206 531.812 685.598 529.12L508.045 692.66L529.776 297.773L715.397 496.685C715.651 496.414 715.913 496.143 716.168 495.864L531.607 298.226L787.703 415.504L787.337 415.942L753.295 456.899C756.204 453.897 759.145 450.926 762.141 448.011L788.204 416.659L788.323 417.671L789.134 424.623C789.483 424.352 789.825 424.073 790.167 423.802L789.388 417.153L790.334 418.324L792.997 421.62C793.291 421.389 793.585 421.166 793.887 420.936L789.372 415.353L789.682 415.074L902.954 312.194L900.927 309.956L903.598 311.358L993.486 139.425L996.276 142.754C996.355 142.26 996.427 141.767 996.506 141.281L994.567 138.963L996.888 138.924C996.951 138.549 997.007 138.175 997.071 137.801L994.122 137.856L994.273 137.291L1016.5 54.8846L1016.98 55.1155L1018.75 55.9835C1018.84 55.6092 1018.92 55.227 1019 54.8527L1016.78 53.7617H1016.76ZM691.878 1.14675L844.883 9.41288L756.212 157.24L691.878 1.14675ZM628.021 163.38L611.671 79.6989L611.838 79.5316L689.573 2.75538L628.029 163.38H628.021ZM689.271 1.47325L610.924 78.8627L610.661 78.7671L505.346 39.8335L689.271 1.47325ZM505.497 41.0838L610.574 79.9219L626.94 163.69L505.497 41.0838ZM349.335 116.013L502.452 40.7254L502.198 41.6572L455.716 213.096L349.335 116.005V116.013ZM455.804 214.736L455.963 214.911L527.569 295.478L313.441 236.994L455.804 214.736ZM527.832 296.713L394.8 377.574L394.577 377.192L311.946 237.751L527.832 296.713ZM311.859 239.805L393.322 377.28L302.043 343.841L302.074 343.506L311.175 238.635L311.867 239.805H311.859ZM393.576 378.57L290.875 478.568L290.971 477.405L301.939 345.003L393.576 378.578V378.57ZM347.253 117.502L310.675 235.242L282.609 170.841L347.253 117.502ZM240.03 225.861L281.79 171.773L309.848 236.158L239.569 226.466L240.03 225.869V225.861ZM310.15 237.329L310.118 237.743L301.049 342.288L239.545 227.589L310.15 237.329ZM239.084 229.102L300.127 342.949L238.845 312.966L239.084 229.102ZM238.655 314.121L300.008 344.135L223.807 371.896L238.655 314.113V314.121ZM299.245 345.609L186.664 457.902L223.425 373.234L299.253 345.609H299.245ZM237.963 229.166L237.725 312.711L196.393 309.924L237.955 229.166H237.963ZM237.574 313.826L237.438 314.336L222.861 371.084L196.393 311.055L237.574 313.834V313.826ZM159.616 528.531L136.478 519.205L136.868 518.743L183.366 463.198L159.616 528.531ZM136.534 517.39L148.719 456.317L183.89 460.825L136.542 517.39H136.534ZM184.463 459.758L149.021 455.218L149.188 454.717L194.637 314.901L184.471 459.758H184.463ZM195.908 312.735L222.392 372.804L222.313 372.979L185.766 457.162L195.908 312.735ZM300.755 345.696L289.683 479.356L289.206 479.268L186.124 460.036L300.747 345.704L300.755 345.696ZM187.34 461.398L289.54 480.471L289.468 480.901L281.011 529.072L187.34 461.406V461.398ZM282.021 529.789L290.398 482.103L318.694 555.551L282.021 529.789ZM319.513 554.547L290.851 480.16L291.058 479.961L393.035 380.672L392.209 382.647L319.911 555.567L319.521 554.555L319.513 554.547ZM339.94 593.76L339.718 593.338L320.729 557.454L321.286 557.327L435.5 531L339.948 593.768L339.94 593.76ZM437.594 529.359L320.825 556.268L321.158 555.479L394.522 380.019L438.047 529.255L437.594 529.359ZM438.826 527.925L438.468 526.691L395.277 378.602L395.563 378.426L528.126 297.851L438.826 527.925ZM507 691.5L439.35 529.654L439.414 529.486L528.483 299.986L507 691.5ZM529.207 295.622L528.849 295.223L457.028 214.418L626.391 166.374L529.199 295.622H529.207ZM785.724 413.346L530.113 296.291L530.439 295.853L627.814 166.366L628.156 166.891L787.083 413.967L785.724 413.346ZM628.847 165.896L755.631 159.063L755.679 159.469L787.727 412.9L628.847 165.904V165.896ZM902.088 311.437L901.754 311.74L789.015 414.135L756.895 160.083L757.809 161.038L902.088 311.437ZM902.755 310.513L757.34 158.928L992.397 139.043L902.755 310.505V310.513ZM992.93 137.88L992.628 137.904L759.804 157.598L1015.3 55.004L992.938 137.88H992.93Z" fill="#8195FF" fill-opacity="0.88" shape-rendering="crispEdges"/>
</g>
<g filter="url(#filter2_d_2737_19)">
<path d="M887.365 1125.11C887.5 1125.08 887.62 1125.09 887.755 1125.09C887.834 1125.09 887.827 1125.09 887.89 1125.08C888.041 1125.05 888.2 1125.03 888.351 1125C888.765 1124.92 888.94 1124.81 889.362 1124.79L889.664 1124.68L889.719 1124.61L952.189 1053.19L953.119 1052.2L951.759 1051.85L750.21 1004.4L910.574 940.998L911.903 940.281L910.63 939.613L753.041 861.059L827.608 746.789L828.086 746.041L927.723 586.577L789.454 415.168L789.764 414.889L794.878 410.249C794.497 410.09 794.123 409.923 793.741 409.764L789.104 413.974L788.476 409C788.213 409.47 787.951 409.939 787.672 410.401C787.633 410.464 787.585 410.528 787.545 410.592L787.815 412.732L786.98 411.435C786.75 411.753 786.511 412.072 786.257 412.382L787.179 413.807L785.819 413.186L785.636 413.106C785.374 413.401 785.095 413.687 784.817 413.966L787.792 415.327L787.426 415.764L724.471 491.406C723.469 492.894 722.332 494.263 721.083 495.48L718.729 498.314L718.22 497.772C717.902 497.979 717.576 498.178 717.241 498.369L717.957 499.133L508.062 692.5C507 691.5 508.062 692.5 507 691.5L439.281 529.5C439.281 529.5 439.281 529.5 438.087 529.247L321 556C320.876 556.468 321.124 555.532 321 556C320 556.5 321 556 320 556.5C318.754 555.532 320 556.5 318.754 555.532L282.05 529.646C281 529 282.464 529.829 282.05 529.646C281 529 281 529 280 529C280 529 278.94 528.697 278.59 528.618L231.431 517.715C230.747 517.684 230.079 517.62 229.419 517.524C229.363 517.524 229.388 517.524 229.332 517.524H229.351L190.5 520C190.126 520.088 189.849 520.206 189.475 520.278L160.523 528.18L159.5 528.5C159.166 528.58 159.834 528.436 159.5 528.5C159 529 159 529 158.766 529.263L137.5 560.5C136.947 561.159 136.382 561.863 136 562.5L142.938 587.778L154.136 612.615L159.609 646.374V646.437L154.844 681.453L154.813 681.517L132.176 725.111L96.8135 781.311L50.5065 836.747L20.0355 872.025L19.4628 872.693L6.12427 888.793L0.119154 913.407V914.036L0.238461 914.601L12.2646 939.892L47.7942 966.289L48.2078 966.527L48.6532 966.79L75.5609 978.44L102.596 991.842L104.385 1006.49L86.4998 1052L85.9998 1053C86.4999 1053.02 86.4999 1053 87.3484 1052.98L96.5192 1050.68H96.5112C96.5908 1050.67 96.6703 1050.64 96.7498 1050.64C97.1157 1050.6 97.4736 1050.52 97.8395 1050.46C97.935 1050.45 98.0225 1050.45 98.1099 1050.44C98.2929 1050.4 98.4917 1050.37 98.6985 1050.37C98.9371 1050.37 99.1519 1050.41 99.3507 1050.46L99.3189 1050.39L144.115 1059.28C144.87 1059.37 145.61 1059.49 146.334 1059.66L202.718 1066.41C203.323 1066.35 203.824 1066.29 204.436 1066.27L254.529 1051.45C254.855 1051.28 255.213 1051.28 255.651 1051.28C255.754 1051.28 255.826 1051.26 255.921 1051.28L350.404 1056.11C350.476 1056.11 350.524 1056.13 350.603 1056.13C350.882 1056.13 351.049 1056.18 351.279 1056.21C351.303 1056.21 351.327 1056.22 351.367 1056.23C351.669 1056.28 351.916 1056.29 352.154 1056.37L352.631 1056.56L494.965 1111.41C495.935 1111.67 496.866 1112 497.772 1112.39C498.067 1112.39 498.353 1112.37 498.647 1112.37C498.814 1112.37 498.965 1112.38 499.132 1112.39C499.18 1112.39 499.22 1112.39 499.268 1112.39L499.061 1112.23L582.663 1100.57V1100.6C582.767 1100.59 582.862 1100.57 582.965 1100.57C583.164 1100.57 583.339 1100.58 583.506 1100.62C583.626 1100.64 583.729 1100.67 583.84 1100.7L735.408 1137.47L735.376 1137.49C735.631 1137.52 735.885 1137.58 736.116 1137.66C736.378 1137.75 736.593 1137.86 736.8 1138C736.911 1137.99 737.015 1137.98 737.126 1137.97C737.444 1137.84 737.778 1137.8 738.112 1137.85C738.247 1137.83 738.391 1137.82 738.526 1137.79L738.502 1137.77L739.496 1137.68L887.389 1125.09L887.365 1125.11ZM951.019 1052.83L889.123 1123.6L888.797 1123.33L750.48 1005.62L951.027 1052.83H951.019ZM909.405 940.258L748.929 1003.71L752.771 862.189L909.405 940.258ZM61.4111 938.865L89.2096 925.05L78.2413 943.6L61.4111 938.865ZM77.9471 944.682V954.773L61.9758 940.194L77.9471 944.682ZM65.6346 884.559L82.5443 906.627L41.7016 921.93L65.6346 884.559ZM40.0631 922.416L2.26668 913.797L64.0756 884.909L40.0631 922.416ZM257.878 548.847L257.989 549.126L272.258 584.277L223.78 549.42L257.878 548.847ZM224.186 548.29L245.764 535.47L256.995 547.733L224.178 548.29H224.186ZM338.434 594.24L297.591 616.992L282.28 558.699L338.426 594.24H338.434ZM282.161 557.291L287.227 549.5L336.565 592.115L328.738 586.776L282.161 557.291ZM181.625 553.734L224.106 580.131L191.806 584.102L181.625 553.734ZM190.231 582.924L173.743 568.512L180.511 553.941L190.223 582.924H190.231ZM223.517 596.707L157.056 611.286L191.519 585.335L223.517 596.699V596.707ZM193.85 584.977L225.18 581.125L224.997 596.047L193.842 584.977H193.85ZM225.88 599.325L228.067 605.238L224.384 615.035L225.872 599.333L225.88 599.325ZM189.563 826.115L217.473 770.408L215.937 816.295L189.563 826.107V826.115ZM215.659 817.6L201.501 870.059L189.109 827.484L215.659 817.6ZM188.147 826.433L158.376 815.531L216.494 769.851L188.147 826.433ZM218.666 768.283L259.357 755.399L217.115 814.846L218.674 768.283H218.666ZM176.176 754.81L227.089 734.557L217.735 767.169L176.176 754.818V754.81ZM218.944 767.01L228.274 734.478L259.453 754.182L218.936 767.01H218.944ZM227.566 733.149L179.215 752.391L241.803 710.619L227.566 733.156V733.149ZM272.346 615.273L252.501 633.879L230.103 606.106L272.346 615.266V615.273ZM235.122 606.209L272.942 610.22V614.255L245.915 608.39L235.122 606.209ZM309.689 684.326L300.001 665.791L320.029 654.085L309.689 684.326ZM309.935 686.379L331.14 693.279L295.507 699.876L309.935 686.379ZM298.53 665.33L283.545 673.439L295.905 659.25L298.53 665.338V665.33ZM296.851 658.605L317.73 654.125L299.508 664.773L296.843 658.605H296.851ZM280.761 674.911L265.577 679.591L292.787 661.104L280.761 674.911ZM299.015 666.34L308.623 684.724L282.447 675.293L299.007 666.34H299.015ZM318.764 652.756L296.334 657.571L287.728 643.652L318.764 652.764V652.756ZM289.081 642.872L321.27 638.057L320.522 652.103L289.081 642.88V642.872ZM294.863 657.324L252.716 646.915L286.177 643.294L294.855 657.324H294.863ZM243.211 658.725L249.383 648.029L252.819 657.587L243.211 658.733V658.725ZM252.684 658.725L247.824 669.842L243.012 659.878L252.684 658.725ZM250.385 647.488L291.387 657.618L253.988 657.491L250.385 647.488ZM249.59 646.119L232.807 638.949L281.095 642.824L275.877 643.278L249.59 646.127V646.119ZM248.699 646.963L242.161 658.303L230.795 639.307L248.699 646.963ZM242.32 661.024L247.124 670.98L238.192 676.59L242.32 661.024ZM247.116 672.309L245.796 681.365L238.439 677.76L247.116 672.301V672.309ZM248.27 672.166L260.534 680.76L246.902 681.604L248.278 672.166H248.27ZM253.957 658.613L291.872 658.74L248.834 670.335L253.965 658.613H253.957ZM273.308 641.074L234.374 637.946L252.414 635.272L252.493 635.288L281.294 641.877L273.308 641.066V641.074ZM250.258 632.901L224.114 618.886L228.831 606.337L250.25 632.901H250.258ZM226.405 597.543L244.738 600.814L229.006 604.562L226.405 597.543ZM228.21 632.67L228.815 637.747L211.682 644.241L228.21 632.67ZM209.431 644.448L223.335 620.414L227.956 631.476L209.423 644.448H209.431ZM224.543 620.398L249.487 633.768L229.045 631.158L224.543 620.398ZM248.325 634.755L229.912 637.484L229.292 632.328L248.317 634.755H248.325ZM229.984 640.158L240.459 657.666L229.984 650.95V640.158ZM241.151 659.449L231.964 665.831L230.135 652.39L241.143 659.449H241.151ZM233.547 666.102L241.231 660.762L237.111 676.296L232.259 666.993L233.547 666.102ZM237.468 681.501L242.774 705.279L239.695 696.573L236.753 688.368L237.468 681.501ZM242.901 708.248L180.161 718.203L236.601 678.994L235.639 688.249L242.901 708.24V708.248ZM238.065 678.851L245.645 682.559L243.474 704.961L238.073 678.851H238.065ZM246.647 683.848L262.133 707.102L244.293 708.096L246.647 683.84V683.848ZM247.252 682.726L261.632 681.843L262.515 705.645L247.252 682.726ZM262.181 680.562L249.161 671.434L292.994 659.624L262.181 680.562ZM279.918 676.368L263.644 705.59L262.754 681.66L279.918 676.376V676.368ZM281.055 676.622L292.898 700.401L264.249 706.791L281.055 676.622ZM282.208 676.423L308.734 685.981L293.885 699.876L282.208 676.423ZM294.251 701.268L332.174 694.249L291.013 753.649L294.251 701.268ZM333.343 694.536L367.441 760.636L291.355 755.137L333.343 694.536ZM332.858 692.674L310.731 685.472L333.009 657.372L332.85 692.674H332.858ZM311.383 682.853L321.413 653.52L332.596 656.098L311.383 682.853ZM321.635 652.414L322.343 639.187L332.373 654.889L321.635 652.414ZM321.635 636.514L298.227 617.916L338.394 595.537L321.635 636.514ZM286.806 642.092L274.66 616.117L319.933 637.134L286.806 642.092ZM300.892 627.059L274.064 614.605V610.69L315.384 633.895L300.892 627.059ZM285.478 641.901L253.583 634.413L273.316 615.902L285.478 641.901ZM272.934 608.939L248.85 600.623L272.934 586.831V608.939ZM268.767 608.692L232.028 605.015L247.466 601.339L247.586 601.379L268.767 608.692ZM226.102 596.365L226.277 581.762L245.716 599.859L226.102 596.357V596.365ZM222.825 619.077L208.763 644.265L211.992 636.076L224.559 601.204L222.825 619.077ZM228.862 638.949V650.83L228.926 651.777L230.922 666.46L236.562 677.665L179.072 717.606L208.111 646.819L228.87 638.949H228.862ZM241.231 709.656L175.119 753.776L178.34 719.636L241.223 709.656H241.231ZM216.908 768.108L158.241 814.218L174.848 755.598L216.916 768.108H216.908ZM187.542 827.428L187.224 827.889L132.765 907.614L157.612 816.462L187.55 827.42L187.542 827.428ZM142.301 925.193L132.16 910.876L197.612 874.922L142.301 925.193ZM142.659 947.595L118.885 943.497L141.697 927.095L142.659 947.595ZM141.434 925.901L118.758 942.207L131.468 911.839L141.434 925.901ZM117.231 942.939L91.8583 923.896L130.355 911.593L117.231 942.939ZM90.9595 923.005L84.3101 907.51L128.454 911.02L90.9595 923.005ZM83.7215 906.34L67.289 884.885L127.825 909.842L83.7215 906.332V906.34ZM89.7903 923.124L43.2924 922.519L83.125 907.59L89.7903 923.124ZM90.8083 924.524L115.807 943.282L79.4821 943.68L90.8083 924.524ZM115.473 944.412L101.466 953.15L81.2399 944.786L115.473 944.412ZM117.199 944.658L127.436 970.021L102.572 953.786L117.207 944.65L117.199 944.658ZM118.368 944.555L142.325 948.685L128.732 970.244L118.368 944.555ZM143.51 948.916L163.347 953.834L130.156 970.092L143.51 948.916ZM142.786 926.275L142.938 926.14L193.691 880.015L198.216 875.527L143.741 946.712L142.786 926.275ZM133.13 909.07L188.211 828.447L200.849 871.874L133.138 909.07H133.13ZM201.692 873.115L227.94 899.114L227.582 899.425L166.521 951.614L201.7 873.115H201.692ZM202.138 871.977L202.201 871.731L216.319 819.446L227.964 897.555L202.138 871.977ZM217.067 816.844L217.17 816.7L259.628 756.951L228.878 896.058L217.067 816.852V816.844ZM228.711 733.451L243.553 709.959L259.667 753.004L228.719 733.451H228.711ZM244.476 709.219L262.571 708.208L262.547 708.693L260.359 751.635L244.484 709.211L244.476 709.219ZM261.385 753.394L263.62 709.569L289.351 755.017L261.362 753.832L261.385 753.394ZM264.018 707.993L293.121 701.507L289.9 753.704L264.026 707.993H264.018ZM368.467 761.837L367.815 766.811L309.832 868.555L291.005 756.243L368.467 761.845V761.837ZM368.3 768.22L405.405 864.513L310.532 869.582L368.3 768.22ZM368.969 766.843L369.637 761.471L440.036 739.491L439.821 740.263L406.105 863.239L368.961 766.843H368.969ZM369.796 760.246L380.796 672.07L381.44 672.786L439.861 738.369L369.796 760.246ZM368.634 760.5L334.179 693.708L379.706 671.728L368.634 760.5ZM333.98 692.554L334.139 656.52L378.879 670.877L333.98 692.554ZM334.187 655.358L334.218 655.008L339.897 596.174L379.237 669.818L334.179 655.358H334.187ZM333.184 654.085L322.502 637.365L338.593 598.012L333.176 654.077L333.184 654.085ZM317.412 634.198L310.731 630.402L282.845 614.438L276.951 611.263L297.011 618.385L317.412 634.198ZM274.064 609.329V587.563L295.698 616.722L274.064 609.329ZM273.404 584.126L259.262 549.285L280.697 557.8L273.404 584.133V584.126ZM272.465 585.813L247.745 599.97L247.538 599.548L223.565 550.646L272.473 585.813H272.465ZM245.661 598.275L226.277 580.226L223.008 552.07L245.661 598.275ZM225.053 579.406L182.325 552.85L221.577 549.492L225.053 579.398V579.406ZM182.022 551.752L195.568 537.547L219.875 548.513L182.022 551.752ZM180.742 551.466L174.84 539.425L193.993 537.579L180.742 551.466ZM179.644 551.776L161.557 549.961L173.79 539.823L179.644 551.768V551.776ZM179.748 552.914L172.947 567.549L161.327 551.068L179.748 552.914ZM172.239 568.488L144.242 585.025L160.253 551.497L172.239 568.488ZM173.265 569.594L190.525 584.683L155.982 610.69L173.265 569.594ZM224.671 597.599L207.395 645.522L156.101 612.639L224.679 597.599H224.671ZM177.974 717.336L160.881 646.923L206.854 646.939L177.982 717.336H177.974ZM173.949 754.373L137.449 756.88L177.139 720.543L173.941 754.373H173.949ZM173.703 755.519L157.159 813.915L136.67 758.065L173.703 755.519ZM156.467 815.268L101.323 823.226L135.795 758.925L156.475 815.276L156.467 815.268ZM156.467 816.406L131.277 908.823L101.061 824.404L156.467 816.406ZM130.394 909.691L66.3981 883.302L100.178 825.271L130.394 909.691ZM88.3268 924.23L59.9317 938.34L41.9243 923.625L88.3347 924.23H88.3268ZM79.0685 945.096L99.2473 953.444L79.0685 955.426V945.096ZM101.14 954.383L105.014 966.281L80.8184 956.381L101.148 954.383H101.14ZM102.556 955.123L125.972 970.411L106.342 966.774L102.556 955.131V955.123ZM106.398 967.92L127.3 971.795L103.797 990.211L106.39 967.92H106.398ZM128.12 973.22L129.368 1010.56L105.873 1006.18L128.12 973.22ZM129.193 971.819L163.498 955.02L130.45 1009.35L129.193 971.819ZM144.218 947.937L199.028 876.322L164.659 953.006L144.218 947.937ZM165.996 953.54L228.051 900.507L219.143 979.475L166.004 953.54H165.996ZM218.785 980.549L218.507 980.963L187.956 1026.48L165.908 954.741L218.793 980.549H218.785ZM220.201 980.096L228.886 903.109L253.925 1047.07L220.185 980.223L220.201 980.096ZM231.606 888.912L261.218 754.962L289.494 756.163L229.356 896.361L231.606 888.912ZM290.091 757.612L290.337 759.084L308.901 869.845L308.559 869.972L229.793 898.199L290.099 757.628L290.091 757.612ZM309.061 870.975L316.322 930.589L230.421 899.154L309.068 870.975H309.061ZM310.158 870.736L404.371 865.698L317.428 930.398L310.158 870.736ZM406.168 865.762L406.431 865.993L456.015 909.452L319.13 930.525L406.168 865.762ZM406.829 864.847L406.9 864.584L440.577 741.751L440.807 744.123L456.595 908.473L406.829 864.855V864.847ZM441.626 740.908L530.892 880.023L457.781 909.022L457.725 908.441L441.634 740.908H441.626ZM442.088 739.547L526.812 761.193V761.519L531.091 878.256L442.088 739.547ZM527.981 762.291L610.931 855.56L532.26 879.537L527.973 762.291H527.981ZM611.846 854.899L528.498 761.185L678.419 743.295L611.846 854.899ZM679.493 743.685L679.867 744.298L751.196 860.677L612.904 855.313L679.493 743.677V743.685ZM611.623 856.531L611.782 856.881L734.859 1133.56L532.689 880.588L611.623 856.531ZM751.642 861.823L747.8 1003.13L613.253 856.459L751.642 861.823ZM825.914 747.314L752.23 860.231L680.495 743.184L826.344 746.653L825.914 747.314ZM790.416 418.144L926.649 586.465L926.506 586.76L827.744 744.481L789.47 416.974L790.416 418.144ZM719.564 499.03L788.277 416.473L788.396 417.483L826.383 742.467L719.389 499.237L719.564 499.03ZM718.991 501.115L719.588 502.468L826.511 745.539L680.153 742.054L680.232 741.56L718.991 501.107V501.115ZM717.933 500.661L717.735 501.911L679.055 741.902L678.586 741.767L508.557 693.633L718.068 500.816L717.933 500.661ZM508.884 694.775L676.653 742.38L527.782 760.142L527.679 759.792L508.12 694.552L508.892 694.767L508.884 694.775ZM506.967 694.631L526.557 759.967L442.215 738.417L506.967 694.623V694.631ZM506.593 693.533L506.299 693.732L441.42 737.605V736.793L439.216 532.295L506.446 693.633L506.593 693.533ZM438.087 532.191L440.29 737.167L439.511 736.292L381.05 670.67L381.154 670.415L438.087 532.191ZM380.335 669.468L340.271 594.471H340.875L437.681 531.109L380.335 669.46V669.468ZM320.5 557.5L435.5 531L339.524 593.287L339.524 593.054L320.678 557.367L321.079 557.068L320.5 557.5ZM319.5 557.53L338.5 592.53L289.248 549.778L319.5 557.53ZM317.467 555.977L287.553 548.203L282.05 531.358L317.5 556.075L317.467 555.977ZM286.496 548.585L281.93 555.612L281.763 533.552L286.496 548.585ZM295.961 615.186L274.127 585.773L274.183 585.566L281.365 559.631L295.953 615.186H295.961ZM280.626 530.974L280.817 556.646L259.357 548.123L280.618 530.966L280.626 530.974ZM279.242 530.647L258.315 547.526L247.005 535.183L279.234 530.647H279.242ZM278.104 529.676L246.09 534.181L232.036 519.02L278.104 529.676ZM244.993 534.65L222.985 547.725L230.66 519.188L244.993 534.65ZM229.499 519.172L221.712 548.123L196.713 536.847L229.499 519.172ZM227.844 518.79L195.767 536.083L190.843 521.225L227.844 518.79ZM189.857 521.814L194.693 536.401L175.349 538.263L189.857 521.806V521.814ZM188.417 521.742L173.894 538.215L160.937 529.247L188.417 521.742ZM173.059 538.995L160.706 549.229L160.213 530.106L173.059 538.995ZM159.108 530.751L159.601 550.065L138.102 561.159L159.108 530.751ZM137.028 562.973L158.949 551.665L143.097 584.866L137.036 562.981L137.028 562.973ZM143.669 586.68L171.881 570.016L154.646 610.992L143.669 586.68ZM155.417 613.547L205.773 645.825L160.643 645.809L155.409 613.547H155.417ZM155.982 681.365L160.325 649.398L176.423 715.704L155.958 681.524L155.982 681.373V681.365ZM155.417 682.79L176.924 718.721L133.64 724.721L155.417 682.782V682.79ZM176.137 719.97L136.336 756.402L133.258 725.915L176.137 719.97ZM132.256 727.116L135.302 757.277L135.071 757.421L99.0246 779.918L132.256 727.108V727.116ZM134.411 759.164L100.735 821.985L97.8395 781.987L134.411 759.156V759.164ZM96.7976 783.117L99.7246 823.536L99.3746 823.632L52.5029 836.142L96.7976 783.125V783.117ZM99.1519 824.849L65.7618 882.211L51.6518 837.527L99.1519 824.849ZM50.7053 838.267L64.7756 882.816L21.2047 872.423L50.7053 838.275V838.267ZM20.3775 873.37L20.6399 873.434L62.0713 883.318L8.0809 887.846L20.3775 873.37ZM7.21394 889.079L62.5247 884.408L1.3679 912.969L7.19803 889.071L7.21394 889.079ZM1.56675 914.792L38.8382 923.291L12.8373 938.658L1.56675 914.792ZM13.6088 939.51L39.9359 923.944L47.667 964.808L13.6088 939.51ZM41.1767 924.461L59.2 939.183L48.693 964.18L41.1767 924.461ZM49.2179 965.819L59.8681 940.48L74.7735 976.889L49.21 965.819H49.2179ZM75.5291 975.759L61.3475 941.117L77.9391 956.269L75.5291 975.759ZM78.997 956.85L104.37 967.228L76.4915 977.127L78.997 956.85ZM77.263 978.043L105.284 968.095L102.66 990.632L77.263 978.043ZM103.717 991.738L126.203 974.119L105.34 1005.03L103.717 991.738ZM97.9513 1049L87.9998 1051.5L103.662 1011.49L97.9191 1049.21L97.9513 1049ZM99.2791 1047.73L105.435 1007.25L128.955 1011.63L99.2791 1047.73ZM99.3507 1049L129.774 1012.4L144.5 1058L99.3507 1049ZM145.411 1056.74L130.609 1011.32L163.92 956.572L145.419 1056.74H145.411ZM165.152 956.031L187.137 1027.56L146.366 1057.72L165.145 956.031H165.152ZM147.132 1058.28L187.55 1028.66L202.5 1065L147.132 1058.28ZM203.5 1065L188.791 1028.7L253.5 1050.5L203.5 1065ZM188.672 1027.48L188.99 1027L219.58 981.441L254.044 1049.72L188.672 1027.48ZM255.436 1048.96L229.531 900.022L316.243 931.75L255.444 1048.96H255.436ZM256 1050L316.871 932.96L317.173 934.026L351 1054.5L256 1050ZM351.979 1054.37L317.738 931.894L318.223 931.822L456.086 910.598L455.474 911.449L351.979 1054.37ZM353 1055L352.966 1054.92L457.033 911.211L457.232 912.189L497 1110.64L353 1055ZM497.597 1108.59L457.979 910.192L531.083 881.193L497.605 1108.59H497.597ZM498.285 1110.97L498.432 1110.64L531.902 883.318L582.365 1099.23L498.285 1110.97ZM583.514 1099.23L532.888 882.601L534.097 884.113L735.662 1136.15L583.514 1099.23ZM736.816 1135.12L613.882 858.775L747.792 1004.75L747.776 1004.94L736.816 1135.12ZM737.81 1136.73L748.842 1005.69L887.819 1123.96L737.802 1136.73L737.81 1136.73Z" fill="#D099F2"/>
</g>
</g>
<defs>
<filter id="filter0_d_2737_19" x="64" y="1040" width="837" height="665" filterUnits="userSpaceOnUse" color-interpolation-filters="sRGB">
<feFlood flood-opacity="0" result="BackgroundImageFix"/>
<feColorMatrix in="SourceAlpha" type="matrix" values="0 0 0 0 0 0 0 0 0 0 0 0 0 0 0 0 0 0 127 0" result="hardAlpha"/>
<feOffset/>
<feGaussianBlur stdDeviation="4.5"/>
<feComposite in2="hardAlpha" operator="out"/>
<feColorMatrix type="matrix" values="0 0 0 0 0.505778 0 0 0 0 0.584854 0 0 0 0 1 0 0 0 0.88 0"/>
<feBlend mode="normal" in2="BackgroundImageFix" result="effect1_dropShadow_2737_19"/>
<feBlend mode="normal" in="SourceGraphic" in2="effect1_dropShadow_2737_19" result="shape"/>
</filter>
<filter id="filter1_d_2737_19" x="126" y="-9" width="902" height="713" filterUnits="userSpaceOnUse" color-interpolation-filters="sRGB">
<feFlood flood-opacity="0" result="BackgroundImageFix"/>
<feColorMatrix in="SourceAlpha" type="matrix" values="0 0 0 0 0 0 0 0 0 0 0 0 0 0 0 0 0 0 127 0" result="hardAlpha"/>
<feOffset/>
<feGaussianBlur stdDeviation="4.5"/>
<feComposite in2="hardAlpha" operator="out"/>
<feColorMatrix type="matrix" values="0 0 0 0 0.505778 0 0 0 0 0.584854 0 0 0 0 1 0 0 0 1 0"/>
<feBlend mode="normal" in2="BackgroundImageFix" result="effect1_dropShadow_2737_19"/>
<feBlend mode="normal" in="SourceGraphic" in2="effect1_dropShadow_2737_19" result="shape"/>
</filter>
<filter id="filter2_d_2737_19" x="-8.88086" y="400" width="971" height="747" filterUnits="userSpaceOnUse" color-interpolation-filters="sRGB">
<feFlood flood-opacity="0" result="BackgroundImageFix"/>
<feColorMatrix in="SourceAlpha" type="matrix" values="0 0 0 0 0 0 0 0 0 0 0 0 0 0 0 0 0 0 127 0" result="hardAlpha"/>
<feOffset/>
<feGaussianBlur stdDeviation="4.5"/>
<feComposite in2="hardAlpha" operator="out"/>
<feColorMatrix type="matrix" values="0 0 0 0 0.505882 0 0 0 0 0.584314 0 0 0 0 1 0 0 0 0.84 0"/>
<feBlend mode="normal" in2="BackgroundImageFix" result="effect1_dropShadow_2737_19"/>
<feBlend mode="normal" in="SourceGraphic" in2="effect1_dropShadow_2737_19" result="shape"/>
</filter>
<linearGradient id="paint0_linear_2737_19" x1="317" y1="553.5" x2="317" y2="1059.5" gradientUnits="userSpaceOnUse">
<stop offset="0.107727" stop-color="#B0A9C8" stop-opacity="0.58"/>
<stop offset="0.392727" stop-color="#B3B0CE" stop-opacity="0.75"/>
<stop offset="0.707727" stop-color="#CDB8CC"/>
<stop offset="0.907727" stop-color="#DCBFCE" stop-opacity="0.86"/>
</linearGradient>
<linearGradient id="paint1_linear_2737_19" x1="353.75" y1="1048.5" x2="353.75" y2="1448" gradientUnits="userSpaceOnUse">
<stop offset="0.11" stop-color="#E3C3CF"/>
<stop offset="0.5" stop-color="#EAC6D0"/>
<stop offset="1" stop-color="#F7CED2"/>
</linearGradient>
<linearGradient id="paint2_linear_2737_19" x1="383" y1="104.5" x2="383" y2="549" gradientUnits="userSpaceOnUse">
<stop offset="0.212727" stop-color="#6D86BF" stop-opacity="0.74"/>
<stop offset="0.877727" stop-color="#B0A9C8"/>
</linearGradient>
<linearGradient id="paint3_linear_2737_19" x1="317" y1="553.5" x2="317" y2="1059.5" gradientUnits="userSpaceOnUse">
<stop offset="0.107727" stop-color="#B0A9C8" stop-opacity="0.58"/>
<stop offset="0.392727" stop-color="#B3B0CE" stop-opacity="0.75"/>
<stop offset="0.707727" stop-color="#CDB8CC"/>
<stop offset="0.907727" stop-color="#DCBFCE" stop-opacity="0.86"/>
</linearGradient>
<linearGradient id="paint4_linear_2737_19" x1="353.75" y1="1048.5" x2="353.75" y2="1448" gradientUnits="userSpaceOnUse">
<stop offset="0.11" stop-color="#E3C3CF"/>
<stop offset="0.5" stop-color="#EAC6D0"/>
<stop offset="1" stop-color="#F7CED2"/>
</linearGradient>
<linearGradient id="paint5_linear_2737_19" x1="383" y1="104.5" x2="383" y2="549" gradientUnits="userSpaceOnUse">
<stop offset="0.212727" stop-color="#6D86BF" stop-opacity="0.74"/>
<stop offset="0.877727" stop-color="#B0A9C8"/>
</linearGradient>
<clipPath id="clip0_2737_19">
<rect width="627" height="1506" fill="white"/>
</clipPath>
</defs>
</svg>
