<svg width="627" height="1506" viewBox="0 0 627 1506" fill="none" xmlns="http://www.w3.org/2000/svg">
<g clip-path="url(#clip0_2737_89)">
<g clip-path="url(#clip1_2737_89)">
<path d="M631.409 12.2633L504 39L348 115.5L282 170L238 226.5L195.295 309.794L148.051 455.021L135 518.5L136.5 562.5L143.5 586.5L155.094 612L160 645.5L155.5 681L133.037 725.106L97.5 780.5L52.5 834.5L6.5 888.5L0.5 913.5L12.5 938.5L48 965.5L103 990.5L105 1005L87 1052L73.5 1073.5L74.5 1086.5L88.5 1104.5L111.5 1125L91.5 1144L83.5 1165.5L82.5 1191L94 1208.5L127.209 1222.3L152 1252.5L158.207 1294.34L144.089 1351.92L143.001 1394.34L156 1428.5L194 1450L280 1450.5L435.43 1431.49L540 1406L606.5 1404.5L657 1456.5V4.5L631.409 12.2633Z" fill="url(#paint0_linear_2737_89)" fill-opacity="0.3"/>
</g>
<path d="M1261.43 241.743L1181.88 134.248L1181.26 135.521L1140.46 311.863L995.173 138.855L1181.27 135.521L1181.89 134.248L1017.41 53.7199L1016.49 53.3777L846.858 8.46659L846.572 9.54879L846.874 9.62836L1014.99 54.1416L1013.76 54.635L757.797 157.221L845.737 10.8936L845.88 8.30744L691.756 0L691.605 2.77711L691.725 3.07153L755.632 157.849L755.012 157.881L628.867 164.669L629.106 164.04L691.207 2.30762L690.746 0.0795732L503.686 39.0148L504.195 41.2746L626.981 164.995L456.823 213.169L457.022 212.421L504.195 41.2746L503.686 39.0148L347.525 115.636L348.488 116.806L454.77 213.598L311.398 235.974L311.605 235.306L348.496 116.806L347.533 115.636L281.939 169.65L238.06 226.123L237.877 226.354L237.647 226.728L237.543 226.935L194.651 310.097L147.367 455.278L134.627 518.985L135.773 562.487L142.911 587.624L154.115 612.459L159.59 646.214V646.278L154.824 681.29L154.792 681.354L132.144 724.944L96.7647 781.138L50.4354 836.569L19.9498 871.844L19.3768 872.512L6.03188 888.61L7.12208 888.873L62.4594 884.202L1.26526 912.784L7.12208 888.873L6.03188 888.61L0 913.238V913.867L0.119364 914.432L12.1513 939.72L47.698 966.114L48.1118 966.353L48.5654 966.616L75.486 978.265L102.534 991.665L104.324 1006.31L86.3959 1052.09L73.2022 1072.91L72.9714 1073.47L72.8839 1074.02L73.4091 1086.36L74.4754 1085.55L74.0218 1075.18L90.3827 1095.13L74.4675 1085.55L73.4011 1086.37L87.709 1105.19L90.0883 1103.39L92.9212 1098.36L109.043 1122.28L89.1413 1105.07L90.0962 1103.38L87.7169 1105.18L111.025 1125.46L91.6002 1143.67L91.2342 1144.19L90.9875 1144.58L82.815 1165.84L83.8654 1166.24L91.0909 1147.45L90.9238 1173.1L83.8575 1166.24L82.8071 1165.84L81.6214 1191.7L82.9344 1191.14L91.0432 1176.35L93.1838 1206.56L82.9105 1191.14L81.6214 1191.71L93.1758 1208.52L93.5658 1208.9L94.0751 1209.25L126.853 1223.1L126.924 1223.18L151.044 1252.12L151.06 1252.24L157.505 1294.11L143.699 1353.06L145.919 1353.57L184.275 1339.93L209.675 1374.51L145.919 1353.58L143.699 1353.06L142.457 1395.57L142.497 1396.09L142.648 1396.64L155.325 1428.16L155.572 1428.7L156.113 1429.06L193.498 1450.57L194.285 1448.68L189.622 1408.58L320.995 1423.9L194.389 1449.55L194.285 1448.68L193.498 1450.57L278.883 1451.3L279.83 1451.25L435.203 1431.83L436.126 1431.67L540.044 1406.85H540.092L605.846 1404.87L657.276 1456.6L693.014 1547.59L736.765 1696.02L737.425 1695.82L738.086 1696.02L779.386 1560.13L817.797 1636.69L818.49 1636.34L819.19 1636.69L863.044 1546.59L861.103 1545.64L863.259 1545.46L849.938 1377.8L855.333 1219.7L855.357 1219.63L890.005 1124.48L890.06 1124.42L952.56 1053L953.483 1051.96L952.13 1051.66L750.484 1004.21L910.925 940.818L912.254 940.102L910.981 939.434L753.317 860.887L827.919 746.628L828.397 745.88L928.082 586.431L927.016 586.303L926.872 586.598L828.063 744.304L789.763 416.836L790.71 418.006L927.008 586.311L928.074 586.439L789.739 415.038L790.049 414.76L903.453 311.959L903.827 311.601L904.098 311.123L994.091 139.325L1140.04 313.121L1140.54 313.511L1141.42 313.359L1261.16 243.144L1262.01 242.563L1261.44 241.759L1261.43 241.743ZM82.7434 1189.15L83.6824 1167.71L90.7726 1174.51L82.7434 1189.15ZM692.146 1.14585L845.331 9.40555L756.555 157.117L692.146 1.14585ZM755.966 158.955L756.014 159.361L788.099 412.595L629.034 165.791L755.966 158.963V158.955ZM735.834 1442.87L707.027 1265.15L809.147 1258.12L808.893 1258.77L735.834 1442.87ZM735.985 1447.52L778.391 1557.93L694.343 1546.94L735.595 1446.49L735.993 1447.52H735.985ZM102.876 1161.75L135.869 1158.01L105.327 1181.45L102.876 1161.76V1161.75ZM104.197 1181.41L92.3244 1174.25L101.858 1162.62L104.197 1181.4V1181.41ZM111.136 1138.04L112.195 1127.73L119.929 1146.66L111.136 1138.04ZM119.834 1148.14L94.091 1144.18L110.396 1138.89L119.834 1148.14ZM99.2555 1050.2L144.431 1059.16L116.046 1090.87L99.2555 1050.2ZM114.574 1090.24L98.404 1078.2L98.8496 1052.16L114.574 1090.25V1090.24ZM78.1757 943.404L61.3374 938.67L89.1493 924.856L78.1757 943.404ZM77.8733 944.494V954.584L61.8944 940.007L77.8733 944.494ZM300.575 345.435L289.49 478.991L289.013 478.904L185.811 459.687L300.567 345.443L300.575 345.435ZM186.352 457.57L223.156 372.968L299.071 345.364L186.36 457.57H186.352ZM532.859 880.406L611.83 856.351L611.989 856.701L735.125 1133.35L532.859 880.406ZM735.953 1136.19L583.732 1099.27L583.668 1099.01L533.018 882.403L534.227 883.915L735.953 1136.19ZM139.227 1185.52L139.052 1185.51L107.945 1182.24L162.566 1167.44L139.227 1185.52ZM440.399 736.991L439.619 736.116L381.13 670.5L381.234 670.245L438.195 532.035L440.399 736.991ZM439.317 532.138L506.726 693.353L506.431 693.552L441.521 737.421V736.609L439.317 532.13V532.138ZM142.632 947.407L118.847 943.309L141.67 926.909L142.632 947.407ZM143.484 948.72L163.33 953.637L130.123 969.894L143.484 948.72ZM142.76 926.081L142.911 925.946L193.689 879.825L198.217 875.337L143.715 946.516L142.76 926.081ZM144.192 947.733L199.028 876.125L164.643 952.802L144.192 947.733ZM236.779 688.213L237.495 681.346L242.803 705.122L239.723 696.417L236.779 688.213L235.665 688.094L242.93 708.082L180.161 718.037L236.628 678.831L235.665 688.086L236.779 688.205V688.213ZM224.564 620.257L249.519 633.626L229.068 631.016L224.564 620.257ZM228.837 637.612L211.697 644.105L228.233 632.536L228.837 637.612ZM195.567 537.398L219.885 548.363L182.015 551.602L195.567 537.398ZM180.734 551.315L174.829 539.276L193.991 537.43L180.734 551.315ZM221.588 549.342L225.066 579.245L182.317 552.692L221.588 549.334V549.342ZM230.66 519.016L244.999 534.477L222.981 547.551L230.66 519.016ZM368.717 760.33L334.244 693.544L379.794 671.566L368.717 760.33ZM380.884 671.908L381.528 672.625L439.985 738.201L369.886 760.076L380.892 671.908H380.884ZM255.933 1051.08L350.462 1055.91L278.469 1124.4L255.933 1051.08ZM257.023 547.591L224.19 548.148L245.779 535.329L257.015 547.591H257.023ZM257.907 548.697L258.018 548.976L272.294 584.123L223.792 549.27L257.907 548.697ZM273.368 615.754L285.536 641.75L253.625 634.262L273.368 615.754ZM272.986 614.122L245.946 608.258L235.148 606.077L272.986 610.088V614.122ZM248.891 600.475L272.986 586.685V608.791L248.891 600.475ZM262.793 681.497L279.965 676.213L263.684 705.433L262.793 681.505V681.497ZM289.403 754.855L261.4 753.67L261.424 753.232L263.66 709.411L289.403 754.855ZM296.915 658.468L317.804 653.988L299.573 664.635L296.907 658.468H296.915ZM308.692 684.584L282.504 675.155L299.071 666.203L308.684 684.584H308.692ZM296.398 657.434L287.788 643.517L318.838 652.628L296.398 657.442V657.434ZM298.594 665.192L283.602 673.301L295.968 659.113L298.594 665.2V665.192ZM280.825 674.773L265.634 679.452L292.857 660.967L280.825 674.773ZM281.111 676.468L292.96 700.244L264.297 706.634L281.111 676.468ZM282.265 676.269L308.804 685.826L293.947 699.719L282.265 676.269ZM309.997 686.24L331.212 693.138L295.562 699.735L309.997 686.24ZM309.743 684.187L300.05 665.654L320.088 653.949L309.743 684.187ZM289.132 642.745L321.337 637.931L320.589 651.975L289.132 642.753V642.745ZM286.857 641.949L274.705 615.976L320 636.992L286.857 641.949ZM300.949 626.918L274.108 614.464V610.549L315.448 633.753L300.949 626.918ZM286.236 643.167L294.918 657.195L252.75 646.787L286.228 643.167H286.236ZM291.44 657.498L254.023 657.37L250.419 647.368L291.44 657.498ZM291.926 658.62L248.867 670.213L253.999 658.492L291.933 658.62H291.926ZM293.048 659.479L262.22 680.415L249.193 671.288L293.048 659.479ZM262.554 705.496L247.283 682.579L261.671 681.696L262.554 705.496ZM262.594 708.058L262.57 708.544L260.381 751.482L244.498 709.061L262.602 708.051L262.594 708.058ZM261.249 754.8L289.538 756.001L229.371 896.185L231.623 888.737L261.249 754.8ZM290.143 757.45L290.39 758.922L308.963 869.672L308.621 869.799L229.816 898.024L290.151 757.465L290.143 757.45ZM289.936 753.55L264.05 707.844L293.167 701.358L289.944 753.55H289.936ZM294.305 701.12L332.247 694.101L291.066 753.495L294.305 701.12ZM333.417 694.388L367.531 760.481L291.408 754.983L333.417 694.388ZM332.931 692.526L310.793 685.324L333.082 657.227L332.923 692.526H332.931ZM311.446 682.706L321.48 653.376L332.669 655.954L311.446 682.706ZM321.703 652.27L322.411 639.045L332.446 654.744L321.703 652.27ZM321.703 636.371L298.284 617.775L338.47 595.399L321.703 636.371ZM317.47 634.047L310.785 630.252L282.886 614.289L276.989 611.114L297.058 618.236L317.47 634.047ZM274.1 609.181V587.418L295.745 616.573L274.1 609.181ZM273.44 583.98L259.291 549.143L280.737 557.657L273.44 583.988V583.98ZM272.501 585.667L247.769 599.823L247.562 599.401L223.577 550.503L272.509 585.667H272.501ZM247.617 601.231L268.809 608.544L232.052 604.868L247.498 601.192L247.617 601.231ZM272.374 615.141L252.519 633.745L230.111 605.974L272.374 615.133V615.141ZM252.519 635.161L281.334 641.75L273.344 640.938L234.392 637.811L252.44 635.138L252.519 635.154V635.161ZM281.135 642.697L275.915 643.151L249.615 645.999L232.824 638.83L281.135 642.705V642.697ZM252.854 657.45L243.241 658.596L249.416 647.901L252.854 657.458V657.45ZM252.71 658.596L247.848 669.712L243.034 659.75L252.71 658.596ZM248.294 672.036L260.565 680.63L246.925 681.473L248.302 672.036H248.294ZM245.819 681.234L238.458 677.63L247.14 672.171L245.819 681.226V681.234ZM246.671 683.701L262.164 706.952L244.315 707.947L246.671 683.693V683.701ZM259.681 752.85L228.718 733.299L243.567 709.809L259.689 752.85H259.681ZM259.474 754.044L218.938 766.871L228.272 734.341L259.466 754.044H259.474ZM259.371 755.253L217.108 814.695L218.668 768.136L259.379 755.253H259.371ZM217.172 816.541L259.649 756.797L228.885 895.891L217.068 816.692L217.172 816.549V816.541ZM228.901 902.925L253.952 1046.87L220.195 980.032L220.211 979.904L228.901 902.925ZM227.978 897.379L202.14 871.804L202.203 871.558L216.328 819.278L227.978 897.379ZM201.487 869.894L189.089 827.323L215.652 817.44L201.487 869.894ZM201.686 872.942L227.946 898.939L227.588 899.249L166.497 951.433L201.694 872.942H201.686ZM228.058 900.315L219.145 979.276L165.98 953.343L228.066 900.315H228.058ZM218.787 980.35L218.508 980.764L187.943 1026.27L165.885 954.544L218.795 980.35H218.787ZM202.625 1065.08L146.969 1058.41L187.506 1028.44L202.625 1065.08ZM188.739 1028.49L253.291 1050.45L203.835 1065.06L188.739 1028.49ZM188.62 1027.27L188.938 1026.79L219.543 981.233L254.023 1049.51L188.62 1027.27ZM229.498 899.822L316.252 931.548L255.424 1048.75L229.506 899.822H229.498ZM230.429 898.963L309.114 870.786L316.379 930.394L230.437 898.963H230.429ZM291.042 756.065L368.542 761.667L367.889 766.64L309.878 868.375L291.042 756.073V756.065ZM368.374 768.049L405.497 864.332L310.578 869.401L368.374 768.049ZM334.037 692.391L334.196 656.36L378.958 670.715L334.037 692.391ZM334.244 655.198L334.276 654.848L339.958 596.019L379.316 669.656L334.236 655.198H334.244ZM333.241 653.925L322.554 637.206L338.653 597.858L333.234 653.917L333.241 653.925ZM297.623 616.836L282.305 558.548L338.478 594.086L297.615 616.836H297.623ZM282.185 557.14L287.254 549.35L336.616 591.961L328.785 586.622L282.185 557.14ZM289.268 549.612L319.332 557.124L319.427 557.299L337.674 591.706L289.268 549.612ZM287.581 548.037L282.233 531.056L316.92 555.373L287.581 548.045V548.037ZM286.522 548.419L281.955 555.445L281.787 533.387L286.522 548.419ZM295.992 615.013L274.148 585.603L274.204 585.396L281.39 559.463L295.984 615.013H295.992ZM259.379 547.957L280.65 530.801L280.841 556.471L259.371 547.949L259.379 547.957ZM258.336 547.352L247.021 535.011L279.265 530.475L258.328 547.352H258.336ZM246.098 534.008L232.036 518.849L278.127 529.504L246.098 534.008ZM223.02 551.912L245.684 598.112L226.291 580.065L223.02 551.912ZM226.307 581.609L245.755 599.704L226.132 596.202L226.307 581.601V581.609ZM244.777 600.674L229.036 604.422L226.434 597.404L244.777 600.674ZM250.291 632.758L224.134 618.745L228.853 606.197L250.283 632.758H250.291ZM248.358 634.604L229.936 637.334L229.315 632.177L248.35 634.604H248.358ZM230.007 640.007L240.487 657.514L230.007 650.798V640.007ZM241.18 659.296L231.989 665.678L230.158 652.238L241.172 659.296H241.18ZM230.811 639.18L248.724 646.835L242.182 658.174L230.811 639.18ZM242.342 660.887L247.148 670.842L238.212 676.452L242.342 660.887ZM245.668 682.404L243.495 704.804L238.092 678.696L245.676 682.404H245.668ZM227.564 733.005L179.19 752.245L241.808 710.477L227.564 733.013V733.005ZM227.087 734.405L217.729 767.014L176.15 754.665L227.087 734.413V734.405ZM215.93 816.135L189.543 825.946L217.466 770.245L215.93 816.127V816.135ZM188.126 826.272L158.341 815.371L216.487 769.696L188.126 826.272ZM188.198 828.27L200.843 871.693L133.099 908.885L188.206 828.27H188.198ZM165.097 955.818L187.092 1027.34L146.301 1057.5L165.089 955.818H165.097ZM202.689 1066.21L170.397 1139.74L170.054 1138.61L146.277 1059.45L202.689 1066.21ZM203.612 1066.89L247.936 1131.86L171.208 1140.69L203.612 1066.89V1066.89ZM204.4 1066.06L254.517 1051.24L248.477 1130.67L204.4 1066.06ZM255.48 1053.47L277.474 1125.01L249.543 1131.58L255.488 1053.46L255.48 1053.47ZM277.968 1126.05L278.143 1126.26L322.021 1179.98L250.315 1132.56L277.968 1126.06V1126.05ZM278.947 1125.47L279.241 1125.19L350.852 1057.06L324.488 1181.21L278.947 1125.47ZM256.045 1049.95L316.881 932.741L317.183 933.808L351.027 1054.81L256.045 1049.95ZM310.204 870.539L404.462 865.502L317.477 930.195L310.204 870.539ZM406.261 865.566L406.523 865.797L456.131 909.251L319.18 930.322L406.261 865.566ZM406.197 863.051L369.035 766.664L369.703 761.293L440.136 739.315L439.921 740.087L406.189 863.051H406.197ZM380.398 669.29L340.316 594.301L340.65 594.078L437.502 530.722L380.398 669.282V669.29ZM339.783 593.306L339.56 592.884L320.549 557.029L321.106 556.901L435.776 530.531L339.791 593.314L339.783 593.306ZM319.729 555.135L319.34 554.124L290.644 479.795L290.851 479.596L392.948 380.384L392.12 382.357L319.737 555.143L319.729 555.135ZM318.52 555.119L281.803 529.377L290.191 481.728L318.52 555.119ZM289.26 480.519L280.793 528.653L187.012 461.039L289.331 480.097L289.26 480.527V480.519ZM278.596 528.454L230.684 517.377L187.585 462.83L278.604 528.454H278.596ZM221.699 547.941L196.689 536.666L229.49 518.992L221.699 547.941ZM195.742 535.902L190.816 521.045L227.835 518.611L195.742 535.902ZM194.667 536.22L175.314 538.082L189.829 521.626L194.667 536.212V536.22ZM173.866 538.034L160.903 529.066L188.397 521.563L173.866 538.034ZM179.627 551.61L161.532 549.795L173.771 539.658L179.627 551.602V551.61ZM179.731 552.747L172.927 567.381L161.301 550.901L179.731 552.747ZM180.487 553.782L190.203 582.762L173.707 568.352L180.479 553.782H180.487ZM181.601 553.567L224.103 579.962L191.787 583.932L181.601 553.567ZM191.492 585.174L223.506 596.537L157.012 611.114L191.492 585.166V585.174ZM193.824 584.807L225.169 580.956L224.986 595.876L193.816 584.807H193.824ZM225.869 599.155L228.058 605.067L224.373 614.862L225.861 599.162L225.869 599.155ZM222.829 618.897L208.76 644.082L211.991 635.894L224.564 601.025L222.829 618.897ZM223.347 620.249L227.97 631.31L209.429 644.281L223.339 620.249H223.347ZM228.877 638.766V650.646L228.941 651.593L230.938 666.275L233.564 665.917L241.251 660.577L237.129 676.11L232.275 666.808L233.564 665.917L230.938 666.275L236.58 677.479L179.062 717.416L208.116 646.636L228.885 638.766H228.877ZM241.251 709.467L175.108 753.582L178.33 719.445L241.243 709.467H241.251ZM216.917 767.913L158.221 814.018L174.837 755.405L216.925 767.913H216.917ZM187.537 827.227L187.219 827.689L132.733 907.405L157.593 816.262L187.545 827.219L187.537 827.227ZM197.62 874.717L142.282 924.983L132.136 910.668L197.62 874.717ZM141.407 925.691L118.72 941.996L131.436 911.631L141.407 925.691ZM117.192 942.728L91.8071 923.686L130.322 911.384L117.192 942.728ZM90.9079 922.795L84.2553 907.302L128.42 910.811L90.9079 922.795ZM83.6665 906.132L67.226 884.679L127.792 909.633L83.6665 906.124V906.132ZM89.7381 922.914L43.2179 922.309L83.0697 907.381L89.7381 922.914ZM90.7567 924.315L115.768 943.07L79.4251 943.468L90.7567 924.315ZM115.433 944.2L101.42 952.937L81.1837 944.574L115.433 944.2ZM117.16 944.447L127.402 969.807L102.526 953.574L117.168 944.439L117.16 944.447ZM118.33 944.343L142.298 948.473L128.699 970.029L118.33 944.343ZM163.481 954.799L130.418 1009.12L129.16 971.597L163.481 954.799ZM163.855 956.351L145.346 1056.51L130.537 1011.1L163.863 956.351H163.855ZM145.664 1061.29L169.227 1139.71L137.412 1112.93L137.452 1112.68L145.664 1061.29ZM138.296 1115.14L168.129 1140.26L147.176 1135.26L147.089 1135.06L138.296 1115.14ZM145.784 1134.89L127.688 1130.05L136.736 1114.38L145.784 1134.89ZM136.426 1111.96L116.627 1091.87L144.638 1060.58L136.426 1111.96ZM136.107 1113.24L127.012 1128.98L117.001 1093.85L136.099 1113.24H136.107ZM127.227 1131.09L146.213 1136.17L147.073 1136.39L167.405 1141.24L125.221 1147.8L148.489 1136.72L146.906 1136.34L122.364 1147.9L127.234 1131.09L127.227 1131.09ZM121.386 1147.24L112.847 1126.34L126.152 1130.77L121.386 1147.24ZM168.081 1143.06L155.771 1157.2L139.991 1156.72L168.081 1143.06ZM166.728 1142.48L137.818 1156.59L123.287 1149.24L166.728 1142.48ZM138.001 1157.78L153.717 1158.27L109.577 1179.59L138.001 1157.79V1157.78ZM109.799 1180.28L114.813 1178.3L155.922 1158.44L163.999 1165.88L109.799 1180.28ZM156.805 1157.73L169.33 1143.35L164.787 1165.07L156.813 1157.73H156.805ZM170.556 1142.95L171.129 1143.98L211.116 1216.08L165.741 1165.99L170.564 1142.94L170.556 1142.95ZM212.723 1219.53L177.511 1220.42L166.123 1168.09L212.723 1219.53ZM171.216 1141.82L248.071 1132.97L213.877 1218.76L171.216 1141.83V1141.82ZM214.983 1219.02L248.891 1133.94L279.114 1225.17L214.768 1219.57L214.983 1219.02ZM249.981 1133.66L323.915 1182.55L280.164 1224.78L279.941 1224.11L249.981 1133.66ZM324.679 1183.37L324.958 1183.86L388.722 1295.04L280.809 1225.7L324.679 1183.37V1183.37ZM352.205 1056.16L352.682 1056.34L496.269 1111.65L325.578 1181.54L352.205 1056.16ZM352.021 1054.13L317.764 931.667L318.249 931.596L456.179 910.373L455.566 911.225L352.021 1054.13ZM406.945 864.643L407.017 864.38L440.709 741.559L440.94 743.93L456.736 908.265L406.945 864.651V864.643ZM441.76 740.715L531.068 879.817L457.922 908.814L457.866 908.233L441.768 740.715H441.76ZM442.221 739.355L526.986 760.999V761.325L531.267 878.051L442.221 739.355ZM528.156 762.097L611.146 855.357L532.437 879.332L528.148 762.097H528.156ZM528.673 760.991L678.666 743.103L612.061 854.696L528.673 760.991ZM527.941 759.948L527.837 759.598L508.269 694.364L509.041 694.579L676.892 742.18L527.949 759.94L527.941 759.948ZM526.715 759.773L442.333 738.225L507.116 694.436L526.715 759.765V759.773ZM507.004 691.078L439.333 529.242L439.396 529.074L528.569 299.752L506.996 691.07L507.004 691.078ZM438.807 527.515L438.449 526.281L395.208 378.307L395.494 378.132L528.211 297.62L438.807 527.515ZM438.028 528.844L437.574 528.947L320.668 555.835L321.003 555.047L394.452 379.723L438.028 528.844ZM290.692 478.187L290.788 477.026L301.769 344.727L393.513 378.275L290.692 478.195V478.187ZM229.291 517.385L190.585 519.931L185.397 461.843L229.283 517.385H229.291ZM189.479 520.107L160.505 528.008L184.338 462.575L189.471 520.107H189.479ZM173.054 538.814L160.696 549.047L160.203 529.926L173.054 538.814ZM160.259 551.331L172.251 568.32L144.24 584.855L160.259 551.331ZM173.277 569.434L190.545 584.521L155.985 610.526L173.277 569.434ZM224.707 597.436L207.423 645.355L156.105 612.475L224.715 597.436H224.707ZM177.988 717.162L160.887 646.755L206.882 646.771L177.996 717.162H177.988ZM173.962 754.195L137.444 756.702L177.153 720.368L173.954 754.195H173.962ZM173.715 755.341L157.163 813.732L136.664 757.887L173.715 755.341ZM156.471 815.084L101.301 823.042L135.789 758.747L156.479 815.092L156.471 815.084ZM156.471 816.222L131.269 908.631L101.038 824.22L156.471 816.222ZM130.386 909.498L66.3586 883.112L100.155 825.087L130.386 909.498ZM82.5047 906.427L41.6423 921.728L65.5868 884.361L82.5047 906.427ZM88.2978 924.036L59.8891 938.144L41.873 923.431L88.3058 924.036H88.2978ZM79.0351 944.9L99.2236 953.247L79.0351 955.229V944.9ZM101.118 954.186L104.993 966.083L80.7858 956.184L101.126 954.186H101.118ZM102.534 954.927L125.961 970.212L106.322 966.576L102.534 954.934V954.927ZM106.378 967.722L127.29 971.597L103.775 990.01L106.37 967.722H106.378ZM128.11 973.021L129.359 1010.36L105.852 1005.98L128.11 973.021ZM129.725 1012.19L144.686 1058.06L99.3828 1049.08L129.725 1012.19ZM116.11 1094.75L126.025 1129.56L112.489 1125.05L116.11 1094.76V1094.75ZM121.521 1149.61L135.9 1156.88L104.603 1160.43L121.521 1149.61ZM137.627 1186.48L119.468 1196.98L106.362 1183.21L137.627 1186.48ZM139.322 1186.8L174.439 1219.35L120.646 1197.6L139.322 1186.8ZM140.269 1186.15L164.779 1167.16L176.142 1219.39L140.277 1186.15H140.269ZM177.503 1221.57L212.819 1220.68L159.344 1291.55L177.503 1221.58V1221.57ZM159.582 1293.08L213.607 1221.49L225.615 1301.6L159.121 1293.69L159.582 1293.09V1293.08ZM214.999 1223.19L276.4 1337.47L226.8 1301.91L226.776 1301.73L214.999 1223.19ZM226.657 1303.19L276.989 1339.28L211.967 1374.52L226.657 1303.19ZM214.951 1220.73L279.345 1226.33V1226.74L277.514 1337.18L214.951 1220.73ZM278.628 1337.88L280.459 1226.84L389.12 1296.65L278.62 1338.53V1337.88H278.628ZM325.626 1182.77L496.492 1112.81L390.369 1295.66L325.626 1182.78V1182.77ZM352.69 1055.16L353.024 1054.7L457.142 911.01L457.341 911.989L497.057 1110.77L352.69 1055.16ZM458.081 909.991L531.219 880.995L497.726 1108.38L458.089 909.991H458.081ZM498.553 1110.42L532.039 883.12L582.586 1099.26L498.466 1111L498.553 1110.42ZM582.832 1100.36L582.92 1100.76L603.013 1192.79L499.19 1112.04L582.832 1100.37V1100.36ZM584.01 1100.49L735.651 1137.27L604.294 1193.39L604.183 1192.87L584.01 1100.49ZM605.782 1193.97L736.622 1138.07L706.04 1263.7L705.515 1263.34L605.05 1194.28L605.782 1193.97ZM705.65 1266.61L695.25 1387.35L607.35 1403.49L607.979 1402.61L705.65 1266.61ZM695.823 1388.89L734.632 1444.54L658.764 1455.47L695.823 1388.89ZM696.348 1387.68L696.364 1387.52L706.558 1269.19L734.672 1442.63L696.348 1387.68ZM809.362 1256.99L708.253 1263.95L799.869 1195.71L809.362 1256.99ZM737.218 1442.47L809.959 1259.17L848.705 1377.53L848.402 1377.71L736.749 1443.66L737.218 1442.47ZM800.999 1195.65L853.742 1219.75L810.413 1256.45L800.999 1195.65ZM800.314 1193.97L800.036 1193.72L738.746 1137.58L739.741 1137.49L887.705 1124.9L800.314 1193.96V1193.97ZM799.407 1194.66L798.985 1194.98L707.306 1263.26L737.751 1138.19L738.301 1138.69L799.415 1194.66H799.407ZM737.051 1134.91L614.058 858.595L748.033 1004.56L748.017 1004.75L737.051 1134.91ZM613.477 856.303L751.932 861.667L748.089 1002.96L613.477 856.303ZM613.119 855.165L679.74 743.54L680.114 744.153L751.478 860.521L613.119 855.158V855.165ZM679.279 741.742L678.809 741.607L508.556 693.322L718.184 500.532L717.985 501.781L679.287 741.75L679.279 741.742ZM508.063 692.239L508.126 691.165L529.819 297.66L718.192 498.988L508.063 692.239ZM531.681 298.01L788.076 415.197L787.709 415.635L718.971 498.176L531.689 298.01H531.681ZM628.223 163.276L611.854 79.6608L612.021 79.4937L689.831 2.75323L628.215 163.252L628.223 163.276ZM689.536 1.4721L611.098 78.8014L610.835 78.7059L505.397 39.8025L689.536 1.4721ZM505.548 41.0518L610.748 79.8597L627.133 163.563L505.548 41.0598V41.0518ZM628 166.252L628.342 166.778L787.455 413.661L786.094 413.041L530.185 296.076L530.511 295.638L628 166.252ZM626.583 166.268L529.278 295.416L528.919 295.018L457.014 214.275L626.576 166.268H626.583ZM349.197 115.93L502.492 40.7017L502.238 41.6327L455.701 212.938L349.197 115.922V115.93ZM455.789 214.577L455.948 214.752L527.638 295.256L313.268 236.818L455.797 214.577H455.789ZM527.901 296.49L394.714 377.289L394.491 376.907L311.764 237.574L527.901 296.49ZM311.676 239.627L393.234 376.994L301.849 343.581L301.88 343.247L310.992 238.457L311.684 239.627H311.676ZM347.112 117.418L310.491 235.067L282.392 170.716L347.112 117.418ZM239.763 225.694L281.573 171.647L309.663 235.982L239.302 226.298L239.763 225.702V225.694ZM309.965 237.152L309.934 237.566L300.854 342.03L239.278 227.42L309.965 237.152ZM238.816 228.932L299.931 342.69L238.578 312.731L238.816 228.932ZM238.387 313.885L299.812 343.876L223.522 371.615L238.387 313.877V313.885ZM237.694 229.004L237.456 312.484L196.076 309.699L237.686 229.004H237.694ZM237.304 313.598L237.169 314.107L222.575 370.811L196.076 310.829L237.304 313.606V313.598ZM195.59 312.5L222.105 372.522L222.026 372.697L185.437 456.814L195.59 312.5ZM148.816 454.363L194.317 314.656L184.139 459.4L148.656 454.864L148.824 454.363H148.816ZM148.346 455.963L183.559 460.466L136.147 516.995L148.346 455.971V455.963ZM136.481 518.34L183.033 462.838L159.256 528.12L136.091 518.802L136.481 518.34ZM159.558 549.907L138.049 560.999L159.065 530.594L159.558 549.907ZM135.749 519.876L158.723 529.114L136.831 560.792L135.749 519.876ZM136.975 562.813L158.906 551.506L143.046 584.704L136.983 562.821L136.975 562.813ZM143.619 586.518L171.845 569.856L154.601 610.828L143.619 586.518ZM155.373 613.382L205.752 645.657L160.601 645.641L155.365 613.382H155.373ZM155.938 681.195L160.283 649.23L176.389 715.53L155.914 681.354L155.938 681.203V681.195ZM155.373 682.619L176.89 718.546L133.585 724.546L155.373 682.611V682.619ZM176.102 719.796L136.282 756.224L133.203 725.74L176.102 719.796ZM132.192 726.941L135.24 757.099L135.009 757.243L98.9451 779.738L132.192 726.933V726.941ZM134.349 758.985L100.656 821.8L97.7594 781.807L134.349 758.977V758.985ZM96.709 782.937L99.6374 823.352L99.2873 823.448L52.393 835.957L96.709 782.945V782.937ZM99.0645 824.665L65.6584 882.021L51.5415 837.341L99.0645 824.665ZM7.94967 887.655L20.2522 873.181L20.5148 873.245L61.966 883.128L7.94967 887.655ZM21.0798 872.226L50.5946 838.081L64.6716 882.626L21.0798 872.234V872.226ZM63.9873 884.727L39.9632 922.23L2.14856 913.612L63.9873 884.727ZM12.7083 938.463L1.43237 914.599L38.7218 923.097L12.7083 938.463ZM13.4723 939.314L39.812 923.75L47.5468 964.61L13.4723 939.314ZM48.5654 963.982L41.0454 924.267L59.0774 938.988L48.5654 963.982ZM49.0986 965.621L59.7538 940.285L74.6664 976.69L49.0906 965.621H49.0986ZM75.4224 975.56L61.2339 940.922L77.8335 956.072L75.4224 975.56ZM78.8919 956.653L104.277 967.03L76.3853 976.928L78.8919 956.653ZM77.1571 977.844L105.192 967.897L102.566 990.432L77.1571 977.844ZM103.624 991.538L126.12 973.921L105.248 1004.83L103.624 991.538ZM105.343 1007.05L128.874 1011.43L99.1839 1047.53L105.343 1007.05ZM103.561 1011.29L97.8151 1049.01L87.8204 1051.5L103.561 1011.3V1011.29ZM87.2474 1052.8L96.4226 1050.51L76.425 1069.89L87.2554 1052.8H87.2474ZM74.5709 1073.25L97.7276 1050.81L97.2581 1077.81L74.5709 1073.25ZM88.3297 1104.18L75.7805 1087.67L92.1016 1097.49L88.3297 1104.18ZM92.5949 1096.08L74.8494 1074.45L97.1149 1078.93L92.5949 1096.08ZM93.4623 1097.19L97.839 1080.57L110.237 1122.09L93.4544 1097.19H93.4623ZM98.8337 1079.96L115.25 1092.18L111.606 1122.7L98.8417 1079.96H98.8337ZM111.128 1126.88L110.006 1137.84L93.8602 1143.08L111.128 1126.88ZM119.898 1149.3L102.399 1160.5L92.77 1145.12L119.898 1149.3ZM92.1891 1146.32L101.531 1161.23L92.022 1172.82L92.1891 1146.31V1146.32ZM94.266 1206.18L92.0856 1175.45L104.165 1182.73L94.266 1206.18ZM105.049 1183.51L118.362 1197.5L94.9265 1207.5L105.049 1183.51ZM95.3085 1208.56L118.982 1198.46L126.28 1221.65L95.3164 1208.57L95.3085 1208.56ZM120.216 1198.67L174.344 1220.55L127.577 1222.06L120.216 1198.67ZM128.341 1223.16L175.8 1221.63L151.545 1251L128.341 1223.16ZM152.15 1252.04L152.277 1251.89L175.856 1223.34L158.206 1291.37L152.158 1252.05L152.15 1252.04ZM144.908 1352.75L158.285 1295.64L183.638 1338.98L144.908 1352.75ZM159.113 1294.83L224.946 1302.65L184.601 1338.41L159.113 1294.83ZM185.214 1339.36L225.36 1303.78L210.845 1374.25L185.214 1339.36ZM143.571 1395.27L144.67 1354.39L209.27 1375.57L143.571 1395.27ZM156.264 1427.54L143.922 1396.85L187.553 1408.17L156.264 1427.54ZM193.187 1449.2L157.084 1428.36L188.508 1408.9L193.195 1449.2H193.187ZM188.715 1407.32L188.421 1407.24L145.068 1395.99L209.779 1376.6L188.723 1407.32H188.715ZM189.941 1407.51L211.331 1376.3L320.708 1422.75L189.933 1407.51H189.941ZM212.421 1375.54L277.777 1340.12L323.255 1422.62L212.421 1375.54ZM279.138 1450.2L199.299 1449.7L321.416 1424.97L279.138 1450.19V1450.2ZM281.875 1449.87L324.663 1424.34H324.798L432.768 1431.26L425.136 1431.97L281.875 1449.87ZM324.87 1423.22L324.759 1423.02L279.472 1340.87L433.181 1430.51L324.87 1423.22ZM279.297 1339.47L389.971 1297.53L390.115 1297.96L434.526 1429.99L279.305 1339.46L279.297 1339.47ZM435.895 1430.57L391.404 1298.29L538.62 1406.04L435.895 1430.56V1430.57ZM391.054 1296.65L391.253 1296.3L497.423 1113.36L497.606 1114.61L539.193 1405.07L391.062 1296.65L391.054 1296.65ZM539.845 1401.75L498.505 1112.98L603.196 1194.41L603.109 1194.7L540.132 1403.72L539.853 1401.76L539.845 1401.75ZM541.445 1403.23L604.151 1195.1L705.412 1264.71L704.974 1265.09L541.015 1404.66L541.445 1403.23V1403.23ZM605.734 1403.77L541.516 1405.7L703.199 1268.07L605.742 1403.76L605.734 1403.77ZM657.141 1454.88L607.175 1404.68L694.653 1388.62L657.547 1455.29L657.141 1454.88ZM658.462 1456.67L734.68 1445.69L734.385 1446.4L693.515 1545.92L658.462 1456.67ZM778.335 1559.6L737.385 1694.33L694.287 1548.1L778.487 1559.11L778.335 1559.6ZM779.219 1557.08L736.263 1445.24L736.582 1445.05L848.219 1379.11L779.219 1557.08ZM861.723 1546.68L818.45 1635.59L818.052 1634.8L780.07 1559.09L861.723 1546.69V1546.68ZM862.097 1545.49L780.094 1557.93L780.365 1557.23L848.967 1380.29L849.119 1382.19L862.097 1545.49ZM854.1 1221.85L848.88 1374.6L810.619 1257.71L854.132 1220.86L854.1 1221.85ZM854.418 1218.85L801.309 1194.59L888.27 1125.87L854.418 1218.84V1218.85ZM951.342 1052.65L889.416 1123.41L889.09 1123.14L750.707 1005.44L951.35 1052.65H951.342ZM888.079 1123.76L737.99 1136.53L749.027 1005.5L888.071 1123.76L888.079 1123.76ZM909.708 940.086L749.155 1003.53L752.998 862.025L909.708 940.086ZM826.193 747.169L752.473 860.075L680.703 743.039L826.622 746.508L826.193 747.169ZM680.345 741.909L680.425 741.416L719.202 500.985L719.799 502.338L826.773 745.386L680.345 741.901V741.909ZM826.654 742.323L719.608 499.115L719.783 498.908L788.537 416.359L788.656 417.37L826.662 742.323H826.654ZM902.562 311.235L902.228 311.537L789.357 413.852L757.2 159.998L758.115 160.953L902.562 311.235ZM903.23 310.312L757.646 158.844L992.976 138.975L903.23 310.304V310.312ZM993.51 137.813L993.207 137.837L760.112 157.515L1015.9 55.001L993.518 137.813H993.51ZM994.839 137.208L1017.1 54.8657L1017.57 55.0965L1179.66 134.447L994.687 137.765L994.839 137.2V137.208ZM1259.98 242.531L1141.57 311.967L1141.8 310.972L1182.28 136.277L1260.4 242.277L1259.98 242.523V242.531Z" fill="#ACACAC"/>
</g>
<defs>
<linearGradient id="paint0_linear_2737_89" x1="329.5" y1="1457" x2="329.5" y2="5.00006" gradientUnits="userSpaceOnUse">
<stop stop-color="#F9CFD3"/>
<stop offset="0.12" stop-color="#F1CAD1"/>
<stop offset="0.3" stop-color="#DBBFCE"/>
<stop offset="0.52" stop-color="#B8ADC9"/>
<stop offset="0.77" stop-color="#8894C3"/>
<stop offset="1" stop-color="#557ABC"/>
</linearGradient>
<clipPath id="clip0_2737_89">
<rect width="627" height="1506" fill="white"/>
</clipPath>
<clipPath id="clip1_2737_89">
<rect width="657" height="1452" fill="white" transform="translate(0 5)"/>
</clipPath>
</defs>
</svg>
